<?xml version="1.0" encoding="UTF-8" standalone="no"?>
<svg width="118px" height="149px" viewBox="0 0 118 149" version="1.1" xmlns="http://www.w3.org/2000/svg" xmlns:xlink="http://www.w3.org/1999/xlink">
    <!-- Generator: Sketch 42 (36781) - http://www.bohemiancoding.com/sketch -->
    <title>Page 1</title>
    <desc>Created with Sketch.</desc>
    <defs>
        <polygon id="path-1" points="33.3043245 0.0516656347 7.46023491e-05 0.0516656347 7.46023491e-05 33.199483 33.3043245 33.199483 33.3043245 0.0516656347"></polygon>
        <polygon id="path-3" points="33.6577489 0.0516656347 0.353499001 0.0516656347 0.353499001 33.199483 33.6577489 33.199483 33.6577489 0.0516656347"></polygon>
    </defs>
    <g id="v0.2" stroke="none" stroke-width="1" fill="none" fill-rule="evenodd">
        <g id="web_1400_1" transform="translate(-641.000000, -252.000000)">
            <g id="FEB01-SUPER-PANDA" transform="translate(0.000000, 70.000000)">
                <g id="Page-1" transform="translate(641.000000, 182.000000)">
                    <path d="M36.053853,131.256084 C36.053853,131.256084 35.2283271,145.720616 42.2637096,148.490263 C49.299092,151.259449 51.4745462,135.99456 51.4745462,135.99456 C51.4745462,135.99456 38.6572195,128.474443 36.053853,131.256084" id="Fill-1" fill="#050001"></path>
                    <path d="M48.9422653,145.613963 C48.9422653,147.388124 46.3570781,148.825998 43.1682454,148.825998 C39.9794127,148.825998 37.3942255,147.388124 37.3942255,145.613963 C37.3942255,143.839802 39.9794127,142.401929 43.1682454,142.401929 C46.3570781,142.401929 48.9422653,143.839802 48.9422653,145.613963" id="Fill-3" fill="#050001"></path>
                    <g id="Group-7" transform="translate(66.191235, 130.496322)" fill="#050001">
                        <path d="M15.7541199,0.882006192 C15.7541199,0.882006192 16.5796458,15.3465387 9.54426335,18.1161858 C2.50888088,20.8853715 0.333426693,5.62048297 0.333426693,5.62048297 C0.333426693,5.62048297 13.1507534,-1.89963467 15.7541199,0.882006192" id="Fill-5"></path>
                    </g>
                    <path d="M69.0569426,145.736208 C69.0569426,147.510369 71.6421299,148.948242 74.8309625,148.948242 C78.0197952,148.948242 80.6049825,147.510369 80.6049825,145.736208 C80.6049825,143.962047 78.0197952,142.524174 74.8309625,142.524174 C71.6421299,142.524174 69.0569426,143.962047 69.0569426,145.736208" id="Fill-8" fill="#050001"></path>
                    <path d="M75.4516219,111.035031 C75.4516219,111.035031 91.7337335,111.030879 93.0841279,124.142418 C94.2154386,135.121826 103.252407,134.741715 105.621773,126.275009 C107.99114,117.807842 95.3826418,104.596662 82.644092,105.110551 C69.9055422,105.624901 75.4516219,111.035031 75.4516219,111.035031" id="Fill-10" fill="#050001"></path>
                    <path d="M84.8677446,115.602457 C84.8677446,103.086457 73.6045135,92.940157 59.7108801,92.940157 C45.8172466,92.940157 34.5540155,103.086457 34.5540155,115.602457 C34.5540155,116.817061 33.4693183,122.524268 33.4693183,124.329337 C33.4693183,133.158624 45.2177964,140.31616 59.7108801,140.31616 C74.2039637,140.31616 85.9524418,133.158624 85.9524418,124.329337 C85.9524418,122.524268 84.8677446,116.817061 84.8677446,115.602457" id="Fill-12" fill="#050001"></path>
                    <path d="M79.6922426,119.172553 C79.6922426,110.653259 70.6184498,103.74667 59.425139,103.74667 C48.2318283,103.74667 39.1575693,110.653259 39.1575693,119.172553 C39.1575693,119.999203 38.2840315,123.884274 38.2840315,125.112717 C38.2840315,131.122537 47.748912,135.99433 59.425139,135.99433 C71.1009,135.99433 80.5662466,131.122537 80.5662466,125.112717 C80.5662466,123.884274 79.6922426,119.999203 79.6922426,119.172553" id="Fill-14" fill="#FEFEFE"></path>
                    <g id="Group-18" transform="translate(0.000000, 0.409635)">
                        <mask id="mask-2" fill="white">
                            <use xlink:href="#path-1"></use>
                        </mask>
                        <g id="Clip-17"></g>
                        <path d="M32.7623773,19.0873613 C32.7623773,19.0873613 37.3202498,2.3975161 20.0000546,0.142218885 C2.67939323,-2.11307833 -14.640802,38.4836554 20.0000546,32.6196059 C32.2570865,29.8190517 32.7623773,19.0873613 32.7623773,19.0873613" id="Fill-16" fill="#050101" mask="url(#mask-2)"></path>
                    </g>
                    <g id="Group-21" transform="translate(82.972112, 0.409635)">
                        <mask id="mask-4" fill="white">
                            <use xlink:href="#path-3"></use>
                        </mask>
                        <g id="Clip-20"></g>
                        <path d="M0.895446215,19.0873613 C0.895446215,19.0873613 -3.66242629,2.3975161 13.6577689,0.142218885 C30.9784303,-2.11307833 48.2986255,38.4836554 13.6577689,32.6196059 C1.40073705,29.8190517 0.895446215,19.0873613 0.895446215,19.0873613" id="Fill-19" fill="#050101" mask="url(#mask-4)"></path>
                    </g>
                    <path d="M104.289745,34.430348 C99.359896,16.0521437 81.1498482,2.4073418 59.4270036,2.4073418 C37.7036928,2.4073418 19.493645,16.0521437 14.5637964,34.430348 C6.84459323,42.3697876 2.22379243,52.397995 2.22379243,63.3105152 C2.22379243,89.0353882 27.8342068,109.889853 59.4270036,109.889853 C91.0193343,109.889853 116.629749,89.0353882 116.629749,63.3105152 C116.629749,52.397995 112.008948,42.3697876 104.289745,34.430348" id="Fill-22" fill="#FEFEFE"></path>
                    <path d="M104.289745,34.430348 C99.359896,16.0521437 81.1498482,2.4073418 59.4270036,2.4073418 C37.7036928,2.4073418 19.493645,16.0521437 14.5637964,34.430348 C6.84459323,42.3697876 2.22379243,52.397995 2.22379243,63.3105152 C2.22379243,89.0353882 27.8342068,109.889853 59.4270036,109.889853 C91.0193343,109.889853 116.629749,89.0353882 116.629749,63.3105152 C116.629749,52.397995 112.008948,42.3697876 104.289745,34.430348 Z" id="Stroke-24" stroke="#231815" stroke-width="2.304225"></path>
                    <path d="M43.9459924,25.9273839 C41.3612713,24.8059628 38.4124984,24.8479412 35.8492195,26.0173375 C28.0787414,29.561969 10.5166219,38.5480991 8.58029522,48.1283839 C6.08507211,60.4746254 13.5702753,69.3634211 29.0399127,64.9187926 C44.5095502,60.4746254 47.5035382,59.9805728 51.4955223,54.5483003 C55.1775263,49.5381176 59.7088291,32.7647771 43.9459924,25.9273839" id="Fill-26" fill="#231815"></path>
                    <path d="M48.3351239,40.0821533 C48.3351239,44.127757 45.0209008,47.4076022 40.9328928,47.4076022 C36.8448849,47.4076022 33.5311279,44.127757 33.5311279,40.0821533 C33.5311279,36.0365495 36.8448849,32.7567043 40.9328928,32.7567043 C45.0209008,32.7567043 48.3351239,36.0365495 48.3351239,40.0821533" id="Fill-28" fill="#FEFEFE"></path>
                    <path d="M47.133147,38.8597536 C47.133147,41.520995 44.9530315,43.6784966 42.263896,43.6784966 C39.5742944,43.6784966 37.3941789,41.520995 37.3941789,38.8597536 C37.3941789,36.1985121 39.5742944,34.0410105 42.263896,34.0410105 C44.9530315,34.0410105 47.133147,36.1985121 47.133147,38.8597536" id="Fill-30" fill="#231815"></path>
                    <path d="M74.6180785,25.9273839 C77.2027996,24.8059628 80.1515725,24.8479412 82.7148514,26.0173375 C90.4853295,29.561969 108.047449,38.5480991 109.983776,48.1283839 C112.478999,60.4746254 104.993796,69.3634211 89.5241582,64.9187926 C74.0545207,60.4746254 71.0605327,59.9805728 67.0685486,54.5483003 C63.3865446,49.5381176 58.8552418,32.7647771 74.6180785,25.9273839" id="Fill-32" fill="#231815"></path>
                    <path d="M70.228947,40.0821533 C70.228947,44.127757 73.5431701,47.4076022 77.6311781,47.4076022 C81.7191861,47.4076022 85.032943,44.127757 85.032943,40.0821533 C85.032943,36.0365495 81.7191861,32.7567043 77.6311781,32.7567043 C73.5431701,32.7567043 70.228947,36.0365495 70.228947,40.0821533" id="Fill-34" fill="#FEFEFE"></path>
                    <path d="M71.4309239,38.8597536 C71.4309239,41.520995 73.6110394,43.6784966 76.3001749,43.6784966 C78.9897765,43.6784966 81.169892,41.520995 81.169892,38.8597536 C81.169892,36.1985121 78.9897765,34.0410105 76.3001749,34.0410105 C73.6110394,34.0410105 71.4309239,36.1985121 71.4309239,38.8597536" id="Fill-36" fill="#231815"></path>
                    <path d="M59.4196853,73.6447954 C53.6302829,73.6415663 48.9390956,69.142043 48.9423586,63.5944455 C48.9451554,58.046848 69.910996,58.0579192 69.9077331,63.6055167 C69.9049363,69.1531142 65.2090876,73.6480245 59.4196853,73.6447954" id="Fill-38" fill="#231815"></path>
                    <path d="M36.053853,69.9510715 C36.053853,74.4224554 30.7147375,78.0473533 24.1282434,78.0473533 C17.5422155,78.0473533 12.2026339,74.4224554 12.2026339,69.9510715 C12.2026339,65.4796876 17.5422155,61.8547898 24.1282434,61.8547898 C30.7147375,61.8547898 36.053853,65.4796876 36.053853,69.9510715" id="Fill-40" fill="#F4DCDF"></path>
                    <path d="M107.176615,69.9510715 C107.176615,74.4224554 101.837499,78.0473533 95.2510052,78.0473533 C88.6649773,78.0473533 83.3253956,74.4224554 83.3253956,69.9510715 C83.3253956,65.4796876 88.6649773,61.8547898 95.2510052,61.8547898 C101.837499,61.8547898 107.176615,65.4796876 107.176615,69.9510715" id="Fill-42" fill="#F4DCDF"></path>
                    <path d="M40.0570709,107.942842 C40.0570709,107.942842 21.9644892,105.509483 22.4683817,90.7381861 C22.8902343,78.3688796 12.7904773,77.4379755 8.86328606,86.4914554 C4.93562869,95.5449353 16.9264972,112.112536 31.1594773,113.448923 C45.3924574,114.784849 40.0570709,107.942842 40.0570709,107.942842" id="Fill-44" fill="#050001"></path>
                </g>
            </g>
        </g>
    </g>
</svg>